<mxfile host="app.diagrams.net" modified="2024-04-23T05:16:12.698Z" agent="Mozilla/5.0 (Macintosh; Intel Mac OS X 10_15_7) AppleWebKit/537.36 (KHTML, like Gecko) Chrome/124.0.0.0 Safari/537.36" etag="xZeB0R1bMGzvgbuV4zs-" version="24.2.5" type="device">
  <diagram name="Page-1" id="fTF2or3-iaQd9MVkVq5c">
    <mxGraphModel dx="2074" dy="1267" grid="1" gridSize="10" guides="1" tooltips="1" connect="1" arrows="1" fold="1" page="1" pageScale="1" pageWidth="850" pageHeight="1100" math="0" shadow="0">
      <root>
        <mxCell id="0" />
        <mxCell id="1" parent="0" />
        <mxCell id="ZKFroCHlaixkJKOYH-kY-1" value="&lt;b&gt;Quiet Smile&lt;/b&gt;" style="ellipse;whiteSpace=wrap;html=1;fillColor=#fff2cc;strokeColor=#d6b656;" vertex="1" parent="1">
          <mxGeometry x="85" y="200" width="120" height="80" as="geometry" />
        </mxCell>
        <mxCell id="ZKFroCHlaixkJKOYH-kY-2" value="&lt;b&gt;Chirp Smile&lt;/b&gt;" style="ellipse;whiteSpace=wrap;html=1;fillColor=#fff2cc;strokeColor=#D61818;strokeWidth=4;" vertex="1" parent="1">
          <mxGeometry x="645" y="200" width="120" height="80" as="geometry" />
        </mxCell>
        <mxCell id="ZKFroCHlaixkJKOYH-kY-3" value="&lt;b&gt;Quiet Frown&lt;/b&gt;" style="ellipse;whiteSpace=wrap;html=1;fillColor=#f8cecc;strokeColor=#B85450;" vertex="1" parent="1">
          <mxGeometry x="365" y="400" width="120" height="80" as="geometry" />
        </mxCell>
        <mxCell id="ZKFroCHlaixkJKOYH-kY-4" value="&lt;b&gt;Chirp Frown&lt;/b&gt;" style="ellipse;whiteSpace=wrap;html=1;fillColor=#f8cecc;strokeColor=#B81900;strokeWidth=4;" vertex="1" parent="1">
          <mxGeometry x="365" y="200" width="120" height="80" as="geometry" />
        </mxCell>
        <mxCell id="ZKFroCHlaixkJKOYH-kY-5" value="" style="shape=flexArrow;endArrow=classic;html=1;rounded=0;entryX=0;entryY=0.5;entryDx=0;entryDy=0;exitX=1;exitY=0.5;exitDx=0;exitDy=0;fillColor=#a20025;strokeColor=#6F0000;" edge="1" parent="1" source="ZKFroCHlaixkJKOYH-kY-1" target="ZKFroCHlaixkJKOYH-kY-4">
          <mxGeometry width="50" height="50" relative="1" as="geometry">
            <mxPoint x="215" y="280" as="sourcePoint" />
            <mxPoint x="345" y="430" as="targetPoint" />
          </mxGeometry>
        </mxCell>
        <mxCell id="ZKFroCHlaixkJKOYH-kY-8" value="&lt;font style=&quot;font-size: 15px;&quot;&gt;TILT&lt;/font&gt;" style="edgeLabel;html=1;align=center;verticalAlign=middle;resizable=0;points=[];fontStyle=1;labelBackgroundColor=#E6E6E6;" vertex="1" connectable="0" parent="ZKFroCHlaixkJKOYH-kY-5">
          <mxGeometry x="-0.1299" y="2" relative="1" as="geometry">
            <mxPoint as="offset" />
          </mxGeometry>
        </mxCell>
        <mxCell id="ZKFroCHlaixkJKOYH-kY-9" value="" style="shape=flexArrow;endArrow=classic;html=1;rounded=0;exitX=1;exitY=0.5;exitDx=0;exitDy=0;entryX=0;entryY=0.5;entryDx=0;entryDy=0;fillColor=#60a917;strokeColor=#2D7600;" edge="1" parent="1" source="ZKFroCHlaixkJKOYH-kY-4" target="ZKFroCHlaixkJKOYH-kY-2">
          <mxGeometry width="50" height="50" relative="1" as="geometry">
            <mxPoint x="365" y="670" as="sourcePoint" />
            <mxPoint x="415" y="620" as="targetPoint" />
          </mxGeometry>
        </mxCell>
        <mxCell id="ZKFroCHlaixkJKOYH-kY-10" value="&lt;font style=&quot;font-size: 15px;&quot;&gt;NO_TILT&lt;/font&gt;" style="edgeLabel;html=1;align=center;verticalAlign=middle;resizable=0;points=[];fontStyle=1;labelBackgroundColor=#E6E6E6;" vertex="1" connectable="0" parent="ZKFroCHlaixkJKOYH-kY-9">
          <mxGeometry x="-0.05" relative="1" as="geometry">
            <mxPoint as="offset" />
          </mxGeometry>
        </mxCell>
        <mxCell id="ZKFroCHlaixkJKOYH-kY-11" value="" style="shape=flexArrow;endArrow=classic;html=1;rounded=0;exitX=0.5;exitY=1;exitDx=0;exitDy=0;entryX=0.5;entryY=0;entryDx=0;entryDy=0;fillColor=#1ba1e2;strokeColor=#006EAF;" edge="1" parent="1" source="ZKFroCHlaixkJKOYH-kY-4" target="ZKFroCHlaixkJKOYH-kY-3">
          <mxGeometry width="50" height="50" relative="1" as="geometry">
            <mxPoint x="365" y="670" as="sourcePoint" />
            <mxPoint x="415" y="620" as="targetPoint" />
          </mxGeometry>
        </mxCell>
        <mxCell id="ZKFroCHlaixkJKOYH-kY-12" value="&lt;font style=&quot;font-size: 15px;&quot;&gt;Button_Pressed&lt;/font&gt;" style="edgeLabel;html=1;align=center;verticalAlign=middle;resizable=0;points=[];fontStyle=1;labelBackgroundColor=#E6E6E6;" vertex="1" connectable="0" parent="ZKFroCHlaixkJKOYH-kY-11">
          <mxGeometry x="-0.2" y="-1" relative="1" as="geometry">
            <mxPoint as="offset" />
          </mxGeometry>
        </mxCell>
        <mxCell id="ZKFroCHlaixkJKOYH-kY-14" value="" style="shape=flexArrow;endArrow=classic;html=1;rounded=0;exitX=0.5;exitY=0;exitDx=0;exitDy=0;entryX=0.5;entryY=0;entryDx=0;entryDy=0;fillColor=#1ba1e2;strokeColor=#006EAF;" edge="1" parent="1" source="ZKFroCHlaixkJKOYH-kY-2" target="ZKFroCHlaixkJKOYH-kY-1">
          <mxGeometry width="50" height="50" relative="1" as="geometry">
            <mxPoint x="365" y="670" as="sourcePoint" />
            <mxPoint x="415" y="620" as="targetPoint" />
            <Array as="points">
              <mxPoint x="425" y="90" />
            </Array>
          </mxGeometry>
        </mxCell>
        <mxCell id="ZKFroCHlaixkJKOYH-kY-16" value="&lt;font style=&quot;font-size: 15px;&quot;&gt;Button_Pressed&lt;/font&gt;" style="edgeLabel;html=1;align=center;verticalAlign=middle;resizable=0;points=[];fontStyle=1;labelBackgroundColor=#E6E6E6;" vertex="1" connectable="0" parent="ZKFroCHlaixkJKOYH-kY-14">
          <mxGeometry x="-0.0802" y="1" relative="1" as="geometry">
            <mxPoint x="-22" y="-10" as="offset" />
          </mxGeometry>
        </mxCell>
        <mxCell id="ZKFroCHlaixkJKOYH-kY-18" value="" style="shape=flexArrow;endArrow=classic;html=1;rounded=0;exitX=0;exitY=0.5;exitDx=0;exitDy=0;entryX=0.5;entryY=1;entryDx=0;entryDy=0;fillColor=#60a917;strokeColor=#2D7600;" edge="1" parent="1" source="ZKFroCHlaixkJKOYH-kY-3" target="ZKFroCHlaixkJKOYH-kY-1">
          <mxGeometry width="50" height="50" relative="1" as="geometry">
            <mxPoint x="365" y="670" as="sourcePoint" />
            <mxPoint x="415" y="620" as="targetPoint" />
          </mxGeometry>
        </mxCell>
        <mxCell id="ZKFroCHlaixkJKOYH-kY-19" value="&lt;font style=&quot;font-size: 15px;&quot;&gt;NO_TILT&lt;/font&gt;" style="edgeLabel;html=1;align=center;verticalAlign=middle;resizable=0;points=[];fontStyle=1;labelBackgroundColor=#E6E6E6;" vertex="1" connectable="0" parent="ZKFroCHlaixkJKOYH-kY-18">
          <mxGeometry x="0.1146" y="-1" relative="1" as="geometry">
            <mxPoint as="offset" />
          </mxGeometry>
        </mxCell>
      </root>
    </mxGraphModel>
  </diagram>
</mxfile>
